<svg width="1512" height="1069" viewBox="0 0 1512 1069" fill="none" xmlns="http://www.w3.org/2000/svg">
<path d="M425.311 856.269L424.393 856.165C420.537 855.76 410.718 856.006 406.25 855.956L364.595 855.66L256.085 855.474C252.593 855.484 204.944 856.512 204.284 855.122C201.069 848.284 202.277 829.543 202.34 820.938L202.707 775.304L204.443 613.993C204.504 605.647 205.265 583.498 204.608 575.851L206.274 323.399L206.711 248.304C206.756 240.375 206.392 218.221 207.319 211.181C211.383 207.082 210.876 208.024 216.723 208.623C223.103 209.273 229.479 209.543 235.882 209.635L328.803 210.516L668.589 212.788L768.988 213.512C781.351 213.578 793.563 213.61 805.927 213.167C808.532 213.07 811.8 213.63 813.991 215.285C814.794 221.724 812.104 454.976 812.005 455.233C810.781 458.387 807.835 461.583 805.562 464.009C786.012 484.852 765.667 504.942 745.734 525.374L672.388 601.077C667.872 605.681 661.327 615.702 656.673 618.026C653.658 617.143 654.65 611.991 654.69 608.218L655.86 452.613C655.998 429.171 655.873 405.734 656.412 382.287C656.46 380.207 655.103 377.878 652.888 377.971C640.541 378.489 628.201 378.13 615.849 378.097L531.974 377.695L409.898 376.798C396.3 376.743 382.734 376.708 369.126 376.142C366.51 376.036 362.907 376.439 360.907 378.39C359.913 383.926 361.261 403.114 361.12 409.955C360.742 428.601 360.837 447.563 360.722 466.231C359.793 530.046 359.5 593.868 359.838 657.689C359.975 667.176 359.326 677.984 359.617 686.757C361.433 690.268 364.991 689.855 368.219 689.771C376.952 689.542 385.69 689.487 394.433 689.604C435.925 690.248 477.419 690.584 518.915 690.609C536.563 690.685 554.219 690.842 571.868 690.72C575.63 690.694 584.038 690.337 587.044 692.551C583.212 697.17 577.023 701.386 572.593 705.792C562.653 715.68 552.876 725.735 543.132 735.835L465.388 816.417C455.128 827.044 436.41 848.177 425.311 856.269Z" fill="#192832"/>
<path d="M864.097 399.55C862.714 397.847 862.491 396.593 862.483 394.253C862.445 382.728 862.603 371 862.654 359.49L863.009 287.76L863.449 212.118C863.524 197.24 863.192 180.264 864.074 165.623C840.563 164.736 816.065 164.848 792.491 164.689L682.439 164.033C667.389 163.947 652.352 163.862 637.296 164.191C634.803 164.241 634.202 164.407 632.64 163.049C632.603 157.347 647.618 145.609 651.95 141.408L686.345 107.826C712.436 82.6277 736.995 55.4116 762.872 29.9261C768.775 24.1103 781.713 12.0852 785.98 5.49589C787.54 4.37079 790.431 3.07143 792.724 1.49569C845.77 1.1358 899.842 2.0962 952.959 2.48517L996.438 2.80595C1001.48 2.84839 1007.55 2.82326 1012.67 3.02956C1013.64 3.07041 1016.25 5.63326 1017.15 6.46956C1015.8 22.9646 1016.37 50.1609 1016.24 67.6169L1015.54 180.701C1015.5 189.654 1016.73 234.421 1012.84 242.89C1011.61 245.589 991.223 265.95 987.138 270.268L890.078 372.44C882.712 380.225 876.009 388.355 868.973 396.455C867.57 398.071 866 398.741 864.097 399.55Z" fill="#192832"/>
<path d="M24.7364 1066.07C19.3513 1066.18 5.52667 1067.25 1.22497 1064.98C-0.058111 1061.47 0.888702 849.494 2.32738 833.021C6.84408 825.965 31.7737 801.853 38.8849 794.484L124.739 705.229C130.147 699.683 135.465 694.038 140.693 688.298C142.378 686.449 147.862 680.043 149.452 678.844L149.9 678.18C152.257 678.789 151.277 678.185 152.943 680.073C153.602 682.744 153.204 683.466 152.556 686.267C152.39 689.98 152.531 694.017 152.513 697.77C152.297 731.946 153.073 766.056 152.889 800.239L152.276 869.924C152.195 879.378 151.977 889.108 151.735 898.587C151.691 900.519 152.399 901.452 153.476 902.901C156.594 904.214 188.001 904 193.121 904.08C236.189 904.977 279.261 905.451 322.335 905.499C338.308 905.395 362.195 906.191 377.613 904.371C378.397 905.593 378.457 906.166 378.95 907.62C378.186 910.33 378.844 909.094 376.412 911.12C364.988 920.9 351.649 935.288 340.969 946.331L300.6 987.465L253.705 1035.86C245.992 1043.77 234.127 1055.08 227.249 1063.19C220.144 1062.67 205.338 1063.24 197.484 1063.21L138.556 1062.67L81.3385 1062.21C70.8148 1062.13 55.9584 1061.61 45.7879 1062.61L50.8945 1062.78C42.9951 1063.74 34.8629 1064.9 26.9361 1065.13C25.2632 1065.18 26.082 1064.9 24.7364 1066.07ZM6.97844 1055.68C6.1769 1056.28 5.75212 1057.3 5.87409 1058.32C5.99606 1059.35 6.64656 1060.22 7.5641 1060.59C8.48164 1060.95 9.51225 1060.75 10.2437 1060.06C11.2857 1059.07 11.4188 1057.4 10.5515 1056.24C9.69058 1055.08 8.11614 1054.84 6.97844 1055.68Z" fill="#192832"/>
<path d="M524.071 626.857C476.139 636.258 430.167 602.464 421.713 551.612C413.265 500.761 445.576 452.353 493.661 443.83C541.155 435.412 586.17 469.125 594.518 519.358C602.865 569.59 571.423 617.57 524.071 626.857Z" fill="#192832"/>
<path d="M322.721 905.84C279.616 905.791 236.513 905.318 193.413 904.421C188.289 904.341 156.86 904.555 153.739 903.242C152.661 901.794 151.952 900.862 151.997 898.931C152.239 889.461 152.457 879.738 152.537 870.292L153.151 800.663C153.334 766.508 152.558 732.426 152.773 698.278C152.791 694.527 152.65 690.493 152.816 686.783C153.465 683.984 153.862 683.264 153.204 680.594C151.536 678.708 152.517 679.311 150.158 678.703C150.92 677.432 150.401 677.951 151.79 677.225L153.824 678.206C156.177 683.728 154.321 704.808 154.853 712.051C156.883 739.513 156.294 766.726 156.122 794.229L155.489 896.501L156.009 896.803C156.669 891.326 156.354 867.482 156.397 860.863L156.916 775.967C157.001 759.999 156.645 731.605 159.132 716.372C159.979 728.708 159.414 746.248 159.331 759.006L157.975 855.705C157.916 866.857 157.449 885.115 158.365 895.737C164.845 897.122 174.527 896.24 183.496 897.993C183.081 899.338 159.372 898.274 157.612 899.653L158.248 900.886C160.314 901.977 326.103 903.518 343.669 903.851C354.586 904.059 366.78 902.864 377.487 904.615C377.674 904.645 377.854 904.68 378.04 904.714C362.61 906.532 338.706 905.736 322.721 905.84Z" fill="#FFBEDF" fill-opacity="0.0509804"/>
<path d="M425.706 856.943C425.091 857.388 424.468 857.832 423.853 858.277C395.589 858.433 367.28 857.761 339.034 859.122C336.098 859.264 325.747 858.761 323.537 859.325L337.914 859.775C323.528 860.81 207.059 861.866 200.876 859.321C196.23 852.549 199.309 830.44 199.18 821.515C198.436 770.219 202.118 718.881 202.85 667.727L203.345 598.583C203.364 595.619 202.971 579.71 203.469 577.404C203.589 576.844 203.87 576.335 204.26 575.937C204.919 583.6 204.156 605.795 204.095 614.159L202.354 775.807L201.986 821.536C201.923 830.159 200.711 848.939 203.937 855.792C204.599 857.185 252.409 856.155 255.912 856.145L364.786 856.333L406.581 856.629C411.064 856.679 420.917 856.434 424.785 856.839L425.706 856.943Z" fill="#EBF2FA" fill-opacity="0.0509804"/>
<path d="M227.514 1063.23C225.414 1064.7 221.441 1066.55 218.714 1066.58C208.482 1066.69 197.892 1066.54 187.668 1066.46L125.301 1065.94L60.123 1065.5C50.0143 1065.47 34.6423 1065.9 25.0774 1065.31C26.4211 1064.37 25.603 1064.59 27.2752 1064.55C35.1988 1064.37 43.3268 1063.44 51.2222 1062.67L46.1172 1062.52C56.2828 1061.72 71.1346 1062.16 81.6546 1062.24L138.852 1062.69L197.76 1063.21C205.611 1063.24 220.411 1062.8 227.514 1063.23Z" fill="white" fill-opacity="0.980392"/>
<path d="M697.23 800.795C679.897 800.795 666.164 795.995 656.03 786.395C645.897 776.662 640.83 762.795 640.83 744.795V711.195C640.83 693.195 645.897 679.395 656.03 669.795C666.164 660.062 679.897 655.195 697.23 655.195C714.43 655.195 727.697 659.929 737.03 669.395C746.497 678.729 751.23 691.595 751.23 707.995V709.195H725.23V707.195C725.23 698.929 722.897 692.129 718.23 686.795C713.697 681.462 706.697 678.795 697.23 678.795C687.897 678.795 680.564 681.662 675.23 687.395C669.897 693.129 667.23 700.929 667.23 710.795V745.195C667.23 754.929 669.897 762.729 675.23 768.595C680.564 774.329 687.897 777.195 697.23 777.195C706.697 777.195 713.697 774.529 718.23 769.195C722.897 763.729 725.23 756.929 725.23 748.795V745.195H751.23V747.995C751.23 764.395 746.497 777.329 737.03 786.795C727.697 796.129 714.43 800.795 697.23 800.795ZM773.541 797.995V657.995H798.741V797.995H773.541ZM857.466 800.795C850.4 800.795 844.066 799.595 838.466 797.195C832.866 794.662 828.4 791.062 825.066 786.395C821.866 781.595 820.266 775.795 820.266 768.995C820.266 762.195 821.866 756.529 825.066 751.995C828.4 747.329 832.933 743.862 838.666 741.595C844.533 739.195 851.2 737.995 858.666 737.995H885.866V732.395C885.866 727.729 884.4 723.929 881.466 720.995C878.533 717.929 873.866 716.395 867.466 716.395C861.2 716.395 856.533 717.862 853.466 720.795C850.4 723.595 848.4 727.262 847.466 731.795L824.266 723.995C825.866 718.929 828.4 714.329 831.866 710.195C835.466 705.929 840.2 702.529 846.066 699.995C852.066 697.329 859.333 695.995 867.866 695.995C880.933 695.995 891.266 699.262 898.866 705.795C906.466 712.329 910.266 721.795 910.266 734.195V771.195C910.266 775.195 912.133 777.195 915.866 777.195H923.866V797.995H907.066C902.133 797.995 898.066 796.795 894.866 794.395C891.666 791.995 890.066 788.795 890.066 784.795V784.595H886.266C885.733 786.195 884.533 788.329 882.666 790.995C880.8 793.529 877.866 795.795 873.866 797.795C869.866 799.795 864.4 800.795 857.466 800.795ZM861.866 780.395C868.933 780.395 874.666 778.462 879.066 774.595C883.6 770.595 885.866 765.329 885.866 758.795V756.795H860.466C855.8 756.795 852.133 757.795 849.466 759.795C846.8 761.795 845.466 764.595 845.466 768.195C845.466 771.795 846.866 774.729 849.666 776.995C852.466 779.262 856.533 780.395 861.866 780.395ZM942.291 837.995V698.795H967.091V710.795H970.691C972.958 706.929 976.491 703.529 981.291 700.595C986.091 697.529 992.958 695.995 1001.89 695.995C1009.89 695.995 1017.29 697.995 1024.09 701.995C1030.89 705.862 1036.36 711.595 1040.49 719.195C1044.62 726.795 1046.69 735.995 1046.69 746.795V749.995C1046.69 760.795 1044.62 769.995 1040.49 777.595C1036.36 785.195 1030.89 790.995 1024.09 794.995C1017.29 798.862 1009.89 800.795 1001.89 800.795C995.891 800.795 990.825 800.062 986.691 798.595C982.691 797.262 979.425 795.529 976.891 793.395C974.491 791.129 972.558 788.862 971.091 786.595H967.491V837.995H942.291ZM994.291 778.795C1002.16 778.795 1008.62 776.329 1013.69 771.395C1018.89 766.329 1021.49 758.995 1021.49 749.395V747.395C1021.49 737.795 1018.89 730.529 1013.69 725.595C1008.49 720.529 1002.02 717.995 994.291 717.995C986.558 717.995 980.091 720.529 974.891 725.595C969.691 730.529 967.091 737.795 967.091 747.395V749.395C967.091 758.995 969.691 766.329 974.891 771.395C980.091 776.329 986.558 778.795 994.291 778.795ZM1080.23 797.995L1061.83 657.995H1088.03L1101.63 779.595H1105.23L1122.83 657.995H1168.43L1186.03 779.595H1189.63L1203.23 657.995H1229.43L1211.03 797.995H1165.43L1147.43 673.595H1143.83L1125.83 797.995H1080.23ZM1249.52 797.995V698.795H1274.72V797.995H1249.52ZM1262.12 687.195C1257.58 687.195 1253.72 685.729 1250.52 682.795C1247.45 679.862 1245.92 675.995 1245.92 671.195C1245.92 666.395 1247.45 662.529 1250.52 659.595C1253.72 656.662 1257.58 655.195 1262.12 655.195C1266.78 655.195 1270.65 656.662 1273.72 659.595C1276.78 662.529 1278.32 666.395 1278.32 671.195C1278.32 675.995 1276.78 679.862 1273.72 682.795C1270.65 685.729 1266.78 687.195 1262.12 687.195ZM1343.84 800.795C1330.91 800.795 1320.31 797.995 1312.04 792.395C1303.78 786.795 1298.78 778.795 1297.04 768.395L1320.24 762.395C1321.18 767.062 1322.71 770.729 1324.84 773.395C1327.11 776.062 1329.84 777.995 1333.04 779.195C1336.38 780.262 1339.98 780.795 1343.84 780.795C1349.71 780.795 1354.04 779.795 1356.84 777.795C1359.64 775.662 1361.04 773.062 1361.04 769.995C1361.04 766.929 1359.71 764.595 1357.04 762.995C1354.38 761.262 1350.11 759.862 1344.24 758.795L1338.64 757.795C1331.71 756.462 1325.38 754.662 1319.64 752.395C1313.91 749.995 1309.31 746.729 1305.84 742.595C1302.38 738.462 1300.64 733.129 1300.64 726.595C1300.64 716.729 1304.24 709.195 1311.44 703.995C1318.64 698.662 1328.11 695.995 1339.84 695.995C1350.91 695.995 1360.11 698.462 1367.44 703.395C1374.78 708.329 1379.58 714.795 1381.84 722.795L1358.44 729.995C1357.38 724.929 1355.18 721.329 1351.84 719.195C1348.64 717.062 1344.64 715.995 1339.84 715.995C1335.04 715.995 1331.38 716.862 1328.84 718.595C1326.31 720.195 1325.04 722.462 1325.04 725.395C1325.04 728.595 1326.38 730.995 1329.04 732.595C1331.71 734.062 1335.31 735.195 1339.84 735.995L1345.44 736.995C1352.91 738.329 1359.64 740.129 1365.64 742.395C1371.78 744.529 1376.58 747.662 1380.04 751.795C1383.64 755.795 1385.44 761.262 1385.44 768.195C1385.44 778.595 1381.64 786.662 1374.04 792.395C1366.58 797.995 1356.51 800.795 1343.84 800.795ZM1452.73 800.795C1442.86 800.795 1434.13 798.729 1426.53 794.595C1419.06 790.329 1413.19 784.395 1408.93 776.795C1404.79 769.062 1402.73 759.995 1402.73 749.595V747.195C1402.73 736.795 1404.79 727.795 1408.93 720.195C1413.06 712.462 1418.86 706.529 1426.33 702.395C1433.79 698.129 1442.46 695.995 1452.33 695.995C1462.06 695.995 1470.53 698.195 1477.73 702.595C1484.93 706.862 1490.53 712.862 1494.53 720.595C1498.53 728.195 1500.53 737.062 1500.53 747.195V755.795H1428.33C1428.59 762.595 1431.13 768.129 1435.93 772.395C1440.73 776.662 1446.59 778.795 1453.53 778.795C1460.59 778.795 1465.79 777.262 1469.13 774.195C1472.46 771.129 1474.99 767.729 1476.73 763.995L1497.33 774.795C1495.46 778.262 1492.73 782.062 1489.13 786.195C1485.66 790.195 1480.99 793.662 1475.13 796.595C1469.26 799.395 1461.79 800.795 1452.73 800.795ZM1428.53 736.995H1474.93C1474.39 731.262 1472.06 726.662 1467.93 723.195C1463.93 719.729 1458.66 717.995 1452.13 717.995C1445.33 717.995 1439.93 719.729 1435.93 723.195C1431.93 726.662 1429.46 731.262 1428.53 736.995Z" fill="#192832"/>
</svg>
