<?xml version="1.0" encoding="utf-8" ?><svg xmlns="http://www.w3.org/2000/svg" xmlns:xlink="http://www.w3.org/1999/xlink" width="2048" height="2048" viewBox="0 0 2048 2048"><path fill="white" d="M1150.17 551.678L1151.6 551.821C1157.6 552.376 1172.87 551.913 1179.82 551.94L1244.61 551.942L1413.38 551.088C1418.81 551.037 1492.91 549.031 1493.95 551.068C1499.02 561.089 1497.33 588.657 1497.32 601.31L1497.21 668.412L1496.14 905.614C1496.13 917.887 1495.17 950.461 1496.27 961.698L1496.23 1332.91L1496.31 1443.33C1496.32 1454.99 1497.11 1487.56 1495.74 1497.92C1489.46 1503.99 1490.24 1502.6 1481.14 1501.78C1471.21 1500.89 1461.29 1500.56 1451.33 1500.49L1306.8 1500.16L778.3 1500.35L622.139 1500.33C602.911 1500.36 583.916 1500.44 564.691 1501.22C560.641 1501.39 555.552 1500.6 552.127 1498.19C550.814 1488.73 552.639 1145.74 552.791 1145.36C554.662 1140.71 559.212 1135.98 562.723 1132.39C592.919 1101.54 624.358 1071.79 655.154 1041.54L768.465 929.468C775.443 922.651 785.522 907.849 792.737 904.383C797.434 905.651 795.943 913.236 795.919 918.784L795.673 1147.59C795.695 1182.06 796.127 1216.52 795.525 1251C795.472 1254.06 797.606 1257.47 801.05 1257.31C820.248 1256.42 839.444 1256.82 858.657 1256.74L989.113 1256.46L1178.99 1256.51C1200.14 1256.45 1221.24 1256.36 1242.41 1257.05C1246.48 1257.18 1252.08 1256.55 1255.17 1253.66C1256.66 1245.51 1254.37 1217.31 1254.52 1207.25C1254.92 1179.83 1254.58 1151.95 1254.57 1124.5C1255.37 1030.66 1255.18 936.817 1254.01 842.981C1253.7 829.033 1254.6 813.135 1254.06 800.238C1251.2 795.094 1245.67 795.738 1240.65 795.896C1227.07 796.323 1213.48 796.495 1199.88 796.413C1135.34 795.897 1070.8 795.835 1006.26 796.229C978.811 796.301 951.349 796.254 923.9 796.616C918.049 796.693 904.976 797.306 900.278 794.081C906.192 787.251 915.775 780.987 922.62 774.463C937.981 759.821 953.085 744.934 968.139 729.983L1088.24 610.691C1104.09 594.958 1132.99 563.691 1150.17 551.678Z"/><path fill="white" d="M473.296 1227.62C475.464 1230.11 475.823 1231.95 475.859 1235.39C476.035 1252.33 475.908 1269.57 475.944 1286.49L476.117 1391.93L476.197 1503.12C476.232 1524.99 476.919 1549.94 475.696 1571.47C512.254 1572.53 550.336 1572.11 586.985 1572.1L758.072 1571.92C781.47 1571.89 804.846 1571.86 828.248 1571.22C832.123 1571.12 833.055 1570.87 835.498 1572.85C835.612 1581.23 812.39 1598.64 805.697 1604.86L752.568 1654.58C712.263 1691.89 674.36 1732.15 634.39 1769.88C625.273 1778.49 605.281 1796.3 598.715 1806.03C596.301 1807.7 591.82 1809.64 588.272 1811.98C505.813 1813.06 421.745 1812.21 339.168 1812.19L271.574 1812.17C263.734 1812.16 254.302 1812.26 246.333 1812.01C244.828 1811.96 240.742 1808.22 239.345 1807C241.266 1782.74 240.113 1742.77 240.135 1717.11L240.082 1550.88C240.058 1537.72 237.694 1471.93 243.646 1459.44C245.54 1455.46 277.023 1425.32 283.33 1418.93L433.181 1267.74C444.553 1256.22 454.892 1244.2 465.748 1232.22C467.913 1229.83 470.347 1228.83 473.296 1227.62Z"/><path fill="white" d="M1770.63 239.981C1779 239.756 1800.48 238.049 1807.19 241.334C1809.22 246.463 1809.89 557.391 1807.82 581.568C1800.87 591.965 1762.36 627.589 1751.38 638.472L1618.82 770.276C1610.47 778.467 1602.26 786.802 1594.19 795.275C1591.59 798.005 1583.13 807.458 1580.67 809.233L1579.98 810.211C1576.31 809.343 1577.84 810.218 1575.23 807.467C1574.18 803.555 1574.79 802.493 1575.77 798.377C1575.99 792.93 1575.73 787.01 1575.72 781.504C1575.71 731.374 1574.16 681.352 1574.1 631.212L1574.35 528.995C1574.38 515.127 1574.62 500.853 1574.9 486.948C1574.95 484.114 1573.84 482.753 1572.15 480.638C1567.29 478.744 1518.47 479.384 1510.51 479.32C1443.55 478.45 1376.59 478.202 1309.63 478.577C1284.8 478.896 1247.66 477.976 1223.71 480.805C1222.48 479.021 1222.38 478.181 1221.6 476.054C1222.76 472.07 1221.75 473.89 1225.51 470.893C1243.17 456.43 1263.76 435.189 1280.25 418.88L1342.59 358.129L1415 286.662C1426.91 274.982 1445.24 258.267 1455.85 246.292C1466.9 246.986 1489.91 245.992 1502.12 245.957L1593.73 246.147L1682.68 246.225C1699.04 246.232 1722.14 246.841 1737.94 245.268L1730 245.068C1742.27 243.588 1754.9 241.796 1767.22 241.374C1769.82 241.284 1768.55 241.7 1770.63 239.981ZM1798.34 255.024C1799.58 254.143 1800.23 252.648 1800.03 251.14C1799.83 249.633 1798.81 248.361 1797.38 247.838C1795.95 247.315 1794.35 247.626 1793.22 248.647C1791.61 250.102 1791.42 252.559 1792.78 254.25C1794.13 255.942 1796.58 256.281 1798.34 255.024Z"/><path fill="#634A56" fill-opacity="0.92941177" d="M1793.22 248.647C1794.35 247.626 1795.95 247.315 1797.38 247.838C1798.81 248.361 1799.83 249.633 1800.03 251.14C1800.23 252.648 1799.58 254.143 1798.34 255.024C1796.58 256.281 1794.13 255.942 1792.78 254.25C1791.42 252.559 1791.61 250.102 1793.22 248.647Z"/><path fill="white" d="M999.237 889.694C1073.73 875.385 1145.61 924.554 1159.28 999.173C1172.94 1073.79 1123.15 1145.24 1048.41 1158.26C974.589 1171.12 904.199 1122.06 890.701 1048.35C877.204 974.642 925.645 903.829 999.237 889.694Z"/><path fill="#FFBEDF" fill-opacity="0.050980393" d="M1309.63 478.577C1376.59 478.202 1443.55 478.45 1510.51 479.32C1518.47 479.384 1567.29 478.744 1572.15 480.638C1573.84 482.753 1574.95 484.114 1574.9 486.948C1574.62 500.853 1574.38 515.127 1574.35 528.995L1574.1 631.212C1574.16 681.352 1575.71 731.374 1575.72 781.504C1575.73 787.01 1575.99 792.93 1575.77 798.377C1574.79 802.493 1574.18 803.555 1575.23 807.467C1577.84 810.218 1576.31 809.343 1579.98 810.211C1578.81 812.085 1579.61 811.317 1577.46 812.397L1574.29 810.978C1570.58 802.897 1573.25 771.934 1572.35 761.307C1568.92 721.015 1569.56 681.063 1569.55 640.688L1569.5 490.552L1568.69 490.114C1567.72 498.161 1568.45 533.159 1568.45 542.876L1568.5 667.503C1568.53 690.944 1569.37 732.621 1565.66 755.009C1564.22 736.909 1564.92 711.155 1564.92 692.426L1566.05 550.464C1566.03 534.093 1566.57 507.287 1565.04 491.704C1554.96 489.737 1539.93 491.132 1525.98 488.653C1526.61 486.673 1563.45 487.989 1566.17 485.947L1565.17 484.143C1561.95 482.563 1304.4 482.022 1277.11 481.714C1260.15 481.523 1241.22 483.403 1224.57 480.944C1224.28 480.902 1224 480.852 1223.71 480.805C1247.66 477.976 1284.8 478.896 1309.63 478.577Z"/><path fill="#EBF2FA" fill-opacity="0.050980393" d="M1150.17 551.678C1151.12 551.019 1152.08 550.361 1153.03 549.702C1196.84 549.18 1240.73 549.872 1284.5 547.582C1289.05 547.344 1305.1 547.974 1308.52 547.123L1286.23 546.613C1308.52 544.945 1489.05 542.187 1498.66 545.858C1505.93 555.746 1501.38 588.218 1501.67 601.313C1503.34 676.571 1498.15 751.936 1497.53 827.001L1497.46 928.461C1497.46 932.81 1498.23 956.149 1497.48 959.538C1497.3 960.36 1496.87 961.11 1496.27 961.698C1495.17 950.461 1496.13 917.887 1496.14 905.614L1497.21 668.412L1497.32 601.31C1497.33 588.657 1499.02 561.089 1493.95 551.068C1492.91 549.031 1418.81 551.037 1413.38 551.088L1244.61 551.942L1179.82 551.94C1172.87 551.913 1157.6 552.376 1151.6 551.821L1150.17 551.678Z"/><path fill="white" fill-opacity="0.98039216" d="M1455.85 246.292C1459.1 243.631 1465.26 240.249 1469.5 240.164C1485.41 239.841 1501.88 239.971 1517.78 239.983L1614.77 240.128L1716.13 240.095C1731.85 240.016 1755.75 239.04 1770.63 239.981C1768.55 241.7 1769.82 241.284 1767.22 241.374C1754.9 241.796 1742.27 243.588 1730 245.068L1737.94 245.268C1722.14 246.841 1699.04 246.232 1682.68 246.225L1593.73 246.147L1502.12 245.957C1489.91 245.992 1466.9 246.986 1455.85 246.292Z"/></svg>